<svg xmlns="http://www.w3.org/2000/svg" height="65.867" width="279.053"><path d="M198.716 41.481h.797c.862 0 .968.193.968 1.636v5.255c0 .99-.106 1.355-1.205 1.355h-.69v1.056h6.031v-1.056h-.302c-1.099 0-1.206-.364-1.206-1.355v-3.533c0-2.023 1.076-3.142 2.648-3.142 1.163 0 1.895.688 1.895 2.217v4.458c0 .99-.107 1.355-1.205 1.355h-.302v1.056h5.9v-1.056h-.56c-1.098 0-1.205-.364-1.205-1.355V43.29c0-2.327-1.637-3.274-3.747-3.274-1.745 0-2.972.732-3.704 2.477h-.044v-2.39c-1.054.128-2.97.257-4.069.257zm-1.701 4.263v-.496c0-3.617-1.443-5.232-4.91-5.232-3.617 0-5.168 2.369-5.168 5.556 0 3.188 1.551 5.555 5.168 5.555 3.598 0 4.674-1.852 4.695-3.703h-2.197c-.022 1.616-.667 2.456-2.239 2.456-2.65 0-2.67-2.671-2.67-4.136zm-7.322-1.249c0-1.81.539-3.294 2.391-3.294 1.852 0 2.304 1.529 2.304 3.294zm-8.204-.731c0 1.872-.538 2.777-1.701 2.777-1.14 0-1.873-.818-1.873-2.757 0-1.873.646-2.583 1.852-2.583 1.033 0 1.722.602 1.722 2.563m.904 8.828c0 .99-.666 2.025-2.712 2.025-1.809 0-2.52-.862-2.52-1.917 0-1.142.647-2.089 2.584-2.089 1.874 0 2.648.883 2.648 1.98m3.123-12.403l-3.187.28c-.602-.172-1.593-.452-2.497-.452-2.821 0-4.673 1.615-4.673 3.705 0 1.958 1.228 2.928 2.842 3.445v.043c-1.485.129-2.11.668-2.11 1.356 0 .731.496 1.099 1.938 1.378v.043c-1.508.15-3.293.948-3.293 2.692 0 1.744 1.484 3.122 4.888 3.122 3.616 0 5.597-1.183 5.597-3.186 0-2.542-2.024-2.843-4.048-2.994-2.369-.172-2.757-.388-2.757-.99 0-.71.97-.818 1.68-.926l.517-.086c3.015-.496 3.962-2.11 3.962-3.834 0-.925-.41-1.765-.947-2.174v-.043h2.088zm-25.43 1.293h.797c.861 0 .968.193.968 1.636v5.255c0 .99-.107 1.355-1.206 1.355h-.689v1.056h6.03v-1.056h-.302c-1.097 0-1.205-.364-1.205-1.355v-3.533c0-2.023 1.076-3.142 2.648-3.142 1.162 0 1.894.688 1.894 2.217v4.458c0 .99-.106 1.355-1.204 1.355h-.302v1.056h5.9v-1.056h-.56c-1.098 0-1.204-.364-1.204-1.355V43.29c0-2.327-1.639-3.274-3.748-3.274-1.746 0-2.972.732-3.704 2.477h-.043v-2.39c-1.056.128-2.972.257-4.07.257zm-5.835-4.802c0 .926.558 1.615 1.57 1.615 1.014 0 1.572-.69 1.572-1.615 0-.926-.558-1.616-1.572-1.616-1.012 0-1.57.69-1.57 1.616m-1.466 4.802h.798c.861 0 .969.193.969 1.636v5.255c0 .99-.108 1.355-1.207 1.355h-.689v1.056h6.288v-1.056h-.56c-1.097 0-1.205-.364-1.205-1.355v-8.27c-1.379.13-3.295.258-4.394.258zm-14.468 0h.795c.861 0 .97.193.97 1.636v5.255c0 .99-.109 1.355-1.206 1.355h-.69v1.056h6.03v-1.056h-.301c-1.098 0-1.207-.364-1.207-1.355v-3.533c0-2.023 1.077-3.142 2.65-3.142 1.162 0 1.894.688 1.894 2.217v4.458c0 .99-.107 1.355-1.205 1.355h-.303v1.056h5.901v-1.056h-.56c-1.098 0-1.206-.364-1.206-1.355V43.29c0-2.327-1.636-3.274-3.747-3.274-1.744 0-2.972.732-3.704 2.477h-.043v-2.39c-1.054.128-2.972.257-4.068.257zm-11.78 4.091c0 3.188 1.55 5.555 5.169 5.555 3.617 0 5.167-2.367 5.167-5.555 0-3.187-1.55-5.556-5.167-5.556-3.62 0-5.169 2.369-5.169 5.556m2.757 0c0-2.928.645-4.306 2.412-4.306 1.765 0 2.411 1.378 2.411 4.306 0 2.929-.646 4.308-2.411 4.308-1.767 0-2.412-1.38-2.412-4.308m-13.42-4.09h.925c.86 0 .97.192.97 1.635v5.255c0 .99-.11 1.355-1.206 1.355h-.689v1.056h6.869v-1.056h-1.141c-1.1 0-1.207-.364-1.207-1.355v-3.533c0-1.807.99-3.142 1.981-3.142.84 0 1.078.602 1.1 1.678h2.066v-3.1c-.495-.173-1.098-.259-1.723-.259-1.744 0-2.97.732-3.704 2.477h-.043v-2.39a42.614 42.614 0 01-4.198.257zm-5.018 2.282c0 1.872-.538 2.777-1.701 2.777-1.141 0-1.873-.818-1.873-2.757 0-1.873.647-2.583 1.851-2.583 1.034 0 1.723.602 1.723 2.563m.904 8.828c0 .99-.666 2.025-2.713 2.025-1.808 0-2.519-.862-2.519-1.917 0-1.142.646-2.089 2.584-2.089 1.874 0 2.648.883 2.648 1.98m3.123-12.403l-3.187.28c-.602-.172-1.593-.452-2.498-.452-2.82 0-4.673 1.615-4.673 3.705 0 1.958 1.227 2.928 2.844 3.445v.043c-1.488.129-2.111.668-2.111 1.356 0 .731.494 1.099 1.937 1.378v.043c-1.507.15-3.294.948-3.294 2.692 0 1.744 1.485 3.122 4.889 3.122 3.617 0 5.598-1.183 5.598-3.186 0-2.542-2.025-2.843-4.049-2.994-2.368-.172-2.756-.388-2.756-.99 0-.71.97-.818 1.68-.926l.516-.086c3.015-.496 3.963-2.11 3.963-3.834 0-.925-.41-1.765-.948-2.174v-.043h2.089v-1.379M270.49 20.076h1.894v6.181c0 2.67 1.204 3.38 3.381 3.38 2.09 0 3.294-1.033 3.294-3.338v-.473h-1.808v1.099c0 .924-.344 1.335-1.12 1.335-.774 0-1.12-.41-1.12-1.335v-6.849h3.445v-1.248h-3.445V15.79h-1.872c-.172 2.175-.647 2.8-2.65 3.037zm-5.707-4.93c0 .925.56 1.615 1.572 1.615s1.572-.69 1.572-1.615c0-.927-.56-1.615-1.572-1.615s-1.572.688-1.572 1.615m-1.466 4.801h.798c.861 0 .969.194.969 1.637v5.254c0 .99-.108 1.355-1.205 1.355h-.688v1.058h6.285v-1.058h-.559c-1.1 0-1.206-.364-1.206-1.355v-8.27c-1.378.13-3.294.26-4.394.26zm-1.7 4.264v-.495c0-3.618-1.442-5.232-4.909-5.232-3.617 0-5.17 2.367-5.17 5.556 0 3.186 1.553 5.554 5.17 5.554 3.597 0 4.672-1.852 4.693-3.704h-2.196c-.02 1.616-.666 2.456-2.238 2.456-2.65 0-2.67-2.671-2.67-4.135zm-7.32-1.25c0-1.808.538-3.294 2.391-3.294 1.85 0 2.303 1.53 2.303 3.294zm-12.856-2.885h1.895v6.181c0 2.67 1.205 3.38 3.38 3.38 2.09 0 3.295-1.033 3.295-3.338v-.473h-1.808v1.099c0 .924-.346 1.335-1.119 1.335-.777 0-1.12-.41-1.12-1.335v-6.849h3.445v-1.248h-3.445V15.79h-1.876c-.17 2.175-.644 2.8-2.647 3.037zm-5.706-4.93c0 .925.56 1.615 1.572 1.615s1.572-.69 1.572-1.615c0-.927-.56-1.615-1.572-1.615s-1.572.688-1.572 1.615m-1.464 4.801h.796c.861 0 .969.194.969 1.637v5.254c0 .99-.108 1.355-1.205 1.355h-.69v1.058h6.288v-1.058h-.56c-1.098 0-1.206-.364-1.206-1.355v-8.27c-1.378.13-3.295.26-4.392.26zm-10.315 8.957c.624.26 2.196.69 3.961.69 2.262 0 4.652-.97 4.652-3.488 0-1.637-.818-2.262-2.67-2.864l-1.766-.581c-.99-.323-1.55-.904-1.55-1.723 0-.862.625-1.27 1.614-1.27 1.551 0 1.96.688 1.96 2.346h1.81v-2.95c-.626-.28-2.068-.58-3.704-.58-2.542 0-4.307 1.183-4.307 3.143 0 1.68 1.205 2.584 3.704 3.337 1.98.603 2.283 1.077 2.283 1.874 0 .99-.906 1.571-2.283 1.571-1.487 0-1.896-.99-1.896-2.519h-1.808zm-11.18-8.957h.927c.861 0 .968.194.968 1.637v5.254c0 .99-.107 1.355-1.206 1.355h-.689v1.058h6.87v-1.058h-1.142c-1.099 0-1.205-.364-1.205-1.355v-3.531c0-1.81.99-3.143 1.98-3.143.84 0 1.077.602 1.098 1.678h2.067v-3.1c-.495-.174-1.097-.258-1.723-.258-1.744 0-2.97.732-3.702 2.475h-.044v-2.39c-1.055.13-2.971.259-4.199.259zm-1.572 4.264v-.495c0-3.618-1.443-5.232-4.91-5.232-3.617 0-5.167 2.367-5.167 5.556 0 3.186 1.55 5.554 5.168 5.554 3.596 0 4.673-1.852 4.694-3.704h-2.197c-.021 1.616-.667 2.456-2.239 2.456-2.649 0-2.67-2.671-2.67-4.135zm-7.321-1.25c0-1.808.538-3.294 2.39-3.294s2.304 1.53 2.304 3.294zm-7.97-3.078h.906c.494 0 .624.128.624.28 0 .172-.043.387-.108.538l-2.239 6.396h-.043l-2.068-6.073c-.064-.215-.193-.474-.193-.754 0-.236.215-.387.861-.387h.711v-1.055h-5.384v1.055h.259c.473 0 .602.128.882.839l3.338 8.658H196l3.337-8.765c.216-.56.41-.732.862-.732h.28v-1.055h-4.566zm-11.973-4.737c0 .925.56 1.615 1.572 1.615s1.572-.69 1.572-1.615c0-.927-.56-1.615-1.572-1.615s-1.572.688-1.572 1.615m-1.464 4.801h.796c.861 0 .97.194.97 1.637v5.254c0 .99-.109 1.355-1.206 1.355h-.69v1.058h6.289v-1.058h-.56c-1.099 0-1.207-.364-1.207-1.355v-8.27c-1.377.13-3.295.26-4.392.26zm-14.47 0h.797c.861 0 .968.194.968 1.637v5.254c0 .99-.107 1.355-1.206 1.355h-.689v1.058h6.03v-1.058h-.302c-1.099 0-1.205-.364-1.205-1.355v-3.531c0-2.025 1.076-3.143 2.648-3.143 1.162 0 1.894.687 1.894 2.217v4.457c0 .99-.106 1.355-1.205 1.355h-.301v1.058h5.9v-1.058h-.56c-1.099 0-1.206-.364-1.206-1.355v-5.08c0-2.328-1.637-3.274-3.748-3.274-1.744 0-2.97.732-3.702 2.475h-.044v-2.39c-1.055.13-2.971.259-4.07.259zm-5.211 9.304h4.069v-1.058h-.56c-1.097 0-1.205-.364-1.205-1.355v-8.27c-1.379.13-3.295.26-4.394.26v1.12h.798c.861 0 .969.193.969 1.636v2.95c0 2.218-.797 3.38-2.628 3.38-1.227 0-1.916-.624-1.916-1.895v-7.45c-1.379.13-3.295.259-4.393.259v1.12h.797c.861 0 .97.193.97 1.636v5.039c0 2.002 1.291 2.971 3.423 2.971 2.175 0 3.531-.946 4.027-2.389h.043zm-19.574-.347c.624.26 2.196.69 3.962.69 2.261 0 4.652-.97 4.652-3.488 0-1.637-.819-2.262-2.671-2.864l-1.765-.581c-.991-.323-1.551-.904-1.551-1.723 0-.862.624-1.27 1.615-1.27 1.55 0 1.96.688 1.96 2.346h1.808v-2.95c-.624-.28-2.067-.58-3.703-.58-2.541 0-4.307 1.183-4.307 3.143 0 1.68 1.206 2.584 3.703 3.337 1.981.603 2.283 1.077 2.283 1.874 0 .99-.904 1.571-2.283 1.571-1.485 0-1.895-.99-1.895-2.519h-1.808zm-13.825-13.996h.797c.862 0 .97.194.97 1.637v10.293c0 .99-.108 1.355-1.207 1.355h-.689v1.058h6.029v-1.058h-.301c-1.098 0-1.206-.364-1.206-1.355V13.531c-1.378.128-3.294.258-4.393.258zm6.245 4.975h1.076c.151 0 .346.085.346.301 0 .172-.151.345-1.056 1.271l-1.98 2.066c3.057 3.985 3.142 4.136 3.142 4.308 0 .215-.214.364-.537.364h-.43v1.058h5.447v-1.058c-.882-.02-1.162-.15-1.938-1.118l-3.123-3.942 2.779-2.755c.409-.388.666-.495 1.033-.495h.71v-1.055h-5.469zm-12.08-4.737c0 .925.56 1.615 1.572 1.615s1.572-.69 1.572-1.615c0-.927-.56-1.615-1.572-1.615s-1.572.688-1.572 1.615m-4.306 18.734c.43.107 1.506.388 2.84.388 3.62 0 4.395-2.262 4.395-4.416V18.568c-1.422.13-3.338.26-4.846.26v1.12h1.207c.862 0 1.012.193 1.012 1.636v8.72c0 2.004-.626 2.585-1.572 2.585-.97 0-1.228-.667-1.228-1.68h-1.808zm-2.994-18.734c0 .925.56 1.615 1.572 1.615s1.573-.69 1.573-1.615c0-.927-.56-1.615-1.573-1.615-1.012 0-1.572.688-1.572 1.615m-1.464 4.801h.796c.861 0 .97.194.97 1.637v5.254c0 .99-.109 1.355-1.206 1.355h-.689v1.058h6.288v-1.058h-.56c-1.099 0-1.206-.364-1.206-1.355v-8.27c-1.378.13-3.295.26-4.393.26zm-11.003 0h.925c.861 0 .969.194.969 1.637v5.254c0 .99-.108 1.355-1.206 1.355h-.688v1.058h6.87v-1.058h-1.143c-1.099 0-1.206-.364-1.206-1.355v-3.531c0-1.81.99-3.143 1.981-3.143.84 0 1.077.602 1.099 1.678h2.066v-3.1c-.494-.174-1.097-.258-1.722-.258-1.744 0-2.97.732-3.703 2.475h-.044v-2.39c-1.055.13-2.97.259-4.198.259v1.12m-11.531-1.277L54.024 65.867l-3.038-.003 38.234-47.19 3.043-.003m-73.792-9.19c-.277.042-.669.152-.898-.344-.207-.449.57-1.177.828-1.411.333-.305-.1-.632-.355-.276-.07.099-.68.96-1.159.96-.741 0-.698-.87-.698-.87s-.829-.527-.829-2.205c0-1.49.986-2.204.986-2.204s.007-.85.671-.828c.662.022 1.092.934 1.134.997.335.504.757.075.463-.284-.695-.846-.841-1.514-.082-1.87.276-.63 1.11-1.074 2.02-1.144l.03-.001.03-.003c.909.074 1.742.517 2.018 1.147.76.357.613 1.025-.081 1.871-.294.36.128.788.464.284.041-.063.47-.975 1.134-.997.663-.021.67.828.67.828s.985.713.985 2.204c0 1.678-.828 2.205-.828 2.205s.043.87-.699.87c-.477 0-1.086-.861-1.158-.96-.253-.356-.688-.029-.355.276.257.234 1.036.962.828 1.411-.228.496-.62.386-.898.344 0 0-.255.443-.64.444 1.925 1.439 4.947.624 5.353-.43 0 0-.512.102-.507-.435.004-.325.334-.5.781-.566a1.524 1.524 0 01-.124-.72c.044-.755.564-1.388 1.164-1.415.599-.025 1.049.565 1.004 1.319-.02.38-.165.729-.379.987.44.15.748.375.708.637-.107.692-.749.521-.749.521-.077 1.583 2.337 1.886 2.954 1.477-.244-.913.12-1.187.399-1.433.198-.176.789-.54.87-.593.184-.12.28-.376.164-.471-.108-.089-.35.065-.464.192-.163.184-.45.619-.898.5-.544-.143-.309-.764-.4-1.099-.58-2.11-.085-3.581 2.026-4.466 0 0 .803-.845 1.523-.464.69.365.261 1.492.261 1.492l.213.1c.77-1.399 1.885-2.413 3.484-2.453 1.133-.029 1.68.64 1.724 1.554.099 2.038-1.984 1.279-1.821.518 0 0-.504.052-.781.494 0-.127.016-1.337-1.064-.698-.308.183-.852 1.097-.892 1.212-.135.401.06.466-.15.857-.164.306-.393.378-.492.591-.1.214.043.636-.093.907-.165.332-.393.356-.543.657-.119.237-1.626 4.081-1.626 4.081s.6.384.485.954c-.152.766-.638.6-.898 1.103C25.095 12.73 16.62 12.717 7.86 14.8c-.263-.458-.729-.32-.878-1.067-.115-.57.485-.954.485-.954S5.958 8.934 5.84 8.698c-.149-.302-.376-.326-.542-.658-.136-.271.006-.693-.094-.907-.098-.213-.327-.285-.49-.59-.21-.392-.016-.457-.151-.858-.039-.115-.584-1.03-.892-1.212-1.079-.64-1.063.57-1.064.698-.276-.442-.781-.494-.781-.494.163.761-1.92 1.52-1.822-.518.044-.915.59-1.583 1.724-1.554 1.6.04 2.714 1.054 3.484 2.453l.215-.1s-.428-1.127.262-1.492c.718-.38 1.52.464 1.52.464 2.111.885 2.606 2.356 2.027 4.466-.092.335.143.956-.4 1.1-.45.118-.734-.317-.898-.5-.114-.128-.355-.282-.464-.193-.115.095-.02.351.163.471.082.054.672.417.871.593.279.246.642.52.4 1.433.616.409 3.03.106 2.953-1.477 0 0-.642.171-.749-.521-.04-.262.269-.487.707-.637a1.722 1.722 0 01-.378-.987c-.045-.754.404-1.344 1.005-1.32.599.028 1.12.66 1.164 1.416.014.268-.032.515-.126.72.447.065.779.24.782.566.005.537-.507.435-.507.435.406 1.054 3.428 1.869 5.355.43-.387-.001-.642-.444-.642-.444m.695-3.941a1.415 1.415 0 102.831 0 1.415 1.415 0 00-2.83 0m7.81 6.138c.609-.017 1.801.231 1.801.231s-.507-.566-.739-.951c0 0-.27.253-.434.372-.128.094-.628.348-.628.348m-6.395-1.241c-.239.266-.7.72-1.201.892 0 0 .825-.021 1.182-.027h.036c.357.006 1.184.027 1.184.027-.502-.172-.964-.626-1.201-.892m-6.396 1.24s-.5-.253-.628-.347a6.161 6.161 0 01-.435-.372c-.232.385-.738.951-.738.951s1.192-.248 1.801-.231m18.737 3.824c.392.105.944.492.793 1.058-.153.568-.823.627-1.217.521-.393-.104-.944-.49-.792-1.058.152-.568.823-.627 1.216-.52m-5.145-.155l-1.193 1.003-1.002-1.194 1.194-1.001zM8.801 17.081c-.393.106-1.064.047-1.216-.52-.152-.567.4-.954.792-1.059.393-.106 1.064-.047 1.215.52.153.569-.398.955-.791 1.06m10.605-2.111c0-.45.558-.814 1.243-.814.687 0 1.245.364 1.245.814 0 .451-.558.816-1.245.816-.685 0-1.243-.365-1.243-.816m-5.884.377l1.001-1.192 1.194 1-1.001 1.195zM3.312 51.38c.136-.544.714-.422.714-.422s-.137-.5.372-.73c.566-.252.847.371.847.371l.237 1.607-1.713-.057s-.607-.168-.456-.77m2.427-2.66c.134-.541.713-.42.713-.42s-.138-.5.372-.73c.565-.253.845.37.845.37l.238 1.608-1.713-.057s-.606-.17-.455-.77m2.425-2.66c.136-.542.713-.42.713-.42s-.137-.5.372-.73c.565-.253.846.37.846.37l.238 1.607-1.714-.057s-.606-.17-.455-.77m12.431-24.63c.136-.543.714-.422.714-.422s-.138-.5.372-.729c.565-.254.845.372.845.372l.24 1.606-1.714-.057s-.607-.17-.457-.77m2.372 9.07c.136-.542.713-.421.713-.421s-.137-.5.372-.728c.565-.254.845.37.845.37l.238 1.607-1.713-.057s-.607-.169-.455-.77m2.846-3.015c.136-.543.713-.42.713-.42s-.136-.501.374-.73c.565-.255.845.37.845.37l.237 1.609-1.712-.058s-.606-.169-.457-.77m2.848-3.016c.136-.54.713-.42.713-.42s-.137-.5.373-.729c.565-.255.846.369.846.369l.237 1.608-1.712-.057s-.608-.17-.457-.771m2.848-3.015c.136-.541.713-.42.713-.42s-.137-.5.372-.728c.566-.255.847.37.847.37l.237 1.606-1.713-.057s-.607-.17-.456-.77M1.7 41.75c.136-.542.714-.42.714-.42s-.137-.502.372-.73c.566-.255.847.368.847.368l.237 1.609-1.713-.058s-.607-.169-.456-.77m6.612 16.136c.135-.542.713-.42.713-.42s-.137-.5.372-.73c.566-.254.847.371.847.371l.237 1.607-1.713-.057s-.607-.17-.456-.771m2.815-3.061c.135-.542.713-.42.713-.42s-.137-.5.373-.73c.564-.254.845.371.845.371l.238 1.607-1.712-.057s-.608-.17-.457-.771m2.815-3.061c.137-.542.714-.42.714-.42s-.138-.5.372-.73c.565-.255.845.37.845.37l.239 1.608-1.714-.058s-.606-.169-.456-.77m2.815-3.061c.136-.544.713-.422.713-.422s-.137-.5.372-.728c.566-.256.847.37.847.37l.237 1.608-1.713-.058s-.607-.17-.456-.77m12.399-13.018c.136-.541.713-.42.713-.42s-.138-.5.373-.728c.564-.255.846.369.846.369l.237 1.608-1.712-.058s-.608-.17-.457-.77m2.538-2.769c.136-.542.714-.42.714-.42s-.138-.502.372-.73c.565-.254.847.369.847.369l.237 1.608-1.714-.057s-.606-.17-.456-.77m2.539-2.77c.136-.54.713-.42.713-.42s-.137-.5.372-.73c.566-.254.847.372.847.372l.238 1.607-1.714-.057s-.607-.171-.456-.771m2.539-2.77c.136-.542.713-.42.713-.42s-.137-.5.372-.73c.565-.253.846.371.846.371l.238 1.607-1.713-.057s-.607-.17-.456-.77M17.068 60.603c.136-.542.714-.421.714-.421s-.137-.5.372-.73c.565-.253.847.372.847.372l.237 1.607-1.713-.058s-.607-.169-.457-.77M36.787 38.78c.136-.544.714-.422.714-.422s-.137-.5.371-.73c.566-.252.847.372.847.372l.237 1.606-1.713-.055s-.607-.17-.456-.771m-19.073 2.19c0-.084.135-.07.39-.114.256-.041.485-.127.485-.041 0 .127-.178.027-.178.234v2c0 .1.135.028.135.107 0 .1-.241.057-.42.057-.185 0-.42.043-.42-.036 0-.134.164 0 .164-.128v-1.9c0-.2-.156-.015-.156-.18m-2.172.866c0-.055.07-.062.2-.127.128-.063.205-.136.32-.035.113.1.732.81.732.81v-1.01c0-.114-.199.036-.199-.078 0-.084.086-.084.227-.141.143-.058.35-.214.35-.115 0 .12-.15.085-.15.242v1.95c0 .163-.015.163-.085.163-.043 0-1.028-1.24-1.028-1.24v1.323c0 .12.238-.046.238.067 0 .064-.142.1-.285.157-.143.055-.341.15-.341.078 0-.12.177-.078.177-.2v-1.714c0-.13-.156-.03-.156-.13m-.77 1.22c0-.825-.527-.517-.527-.517v1.696s.526-.01.526-1.178m-1.23-.341c0-.06.256-.156.427-.235.306-.143 1.295-.648 1.295.569 0 1.117-.784 1.302-1.032 1.416-.25.114-.586.278-.612.224-.044-.088.135-.102.135-.301V43c0-.35-.213-.168-.213-.285m3.446-5.044c-.005-.052.202-.087.307-.115.179-.049.292-.082.367-.008.074.076.44.665.44.665s.47-.665.508-.71c.037-.045.052-.108.24-.111.216-.004.313-.026.313.018 0 .082-.135.042-.143.214-.005.133 0 1.724 0 1.815 0 .203.14.133.14.203 0 .066-.09.039-.407.036-.262-.004-.438.034-.438-.015 0-.09.139-.015.139-.198v-1.214s-.456.665-.479.665c-.027 0-.583-.849-.583-.849v1.453c0 .234.23.097.23.188 0 .046-.175.065-.305.098-.149.036-.28.092-.295.05-.032-.09.161-.04.161-.302 0-.232.003-1.565 0-1.662-.008-.258-.187-.146-.195-.22m-.657.254c.078-.037.281-.148.305-.114.036.05-.08.06-.162.412-.03.127-.414 2.143-.556 2.213-.046.023-.695-1.587-.755-1.715-.107-.228-.22-.074-.242-.156-.012-.052.165-.119.312-.185.08-.036.366-.21.397-.174.06.067-.158.07-.054.316.07.166.433.968.433.968s.214-.904.279-1.21c.064-.305-.17-.154-.178-.22-.004-.04.113-.089.213-.132zm-2.492 2.114v1.107s.57-.119.57-.809c0-.591-.57-.298-.57-.298m-.008-.971v.733s.413-.154.413-.51c0-.426-.413-.223-.413-.223m.044-.19c.241-.093.874-.22.874.328 0 .391-.255.483-.255.483s.462.086.462.47c0 .441-.213.747-.454.876-.124.065-.883.432-.955.476-.07.042-.24.135-.259.093-.044-.096.124-.08.124-.364v-1.775c0-.376-.177-.21-.177-.309 0-.061.392-.183.64-.278m3.95-4.997v.896s.42-.027.42-.511c0-.577-.42-.385-.42-.385m1.113 2c.128.016.185-.035.185-.035s-.042.32-.377.32c-.455 0-.448-.782-.576-1.01-.128-.228-.343-.106-.343-.106v.796c0 .257.16.146.16.24 0 .037-.124.06-.124.06s-.348.099-.476.127c-.128.028-.184.058-.184 0 0-.101.127-.036.127-.316v-1.647c0-.32-.184-.214-.188-.304-.003-.053.128-.078.255-.11.215-.054.297-.12.602-.192.295-.069.812.072.812.484 0 .456-.257.547-.399.654.526.257.291 1.01.526 1.04m-3.458-1.17c.214-.071.591-.232.996-.46.055-.03.22-.134.299.015.082.153.143.356.093.377-.073.03-.12-.03-.213-.079-.081-.043-.185-.091-.285-.064-.1.029-.236.089-.236.089l.001.7s.248 0 .277-.134c.023-.108.067-.25.146-.27.045-.013.032.13.037.333.002.069.007.108.008.146.005.247-.01.329-.045.336-.068.013-.125-.167-.142-.21-.029-.074-.28-.007-.28.034v1.009s.191-.103.276-.154c.116-.067.312-.293.388-.427.075-.132.105-.24.174-.228.044.007-.05.442-.05.442s-.006.17-.149.24c-.141.073-.938.445-1.006.478-.137.064-.3.181-.303.118-.004-.1.131-.047.131-.341l-.004-1.683s-.005-.142-.113-.161c-.083-.013-.16-.052 0-.107m-1.861.773c.114-.04.439-.178.457-.14.044.101-.169.079-.098.281.06.17.434 1.061.434 1.061l.329-1.281c.07-.277-.154-.181-.173-.249-.012-.047.164-.1.264-.143.082-.038.346-.151.36-.117.035.09-.1.09-.17.338-.086.296-.584 2.3-.723 2.377-.079.043-.766-1.686-.819-1.822-.054-.134-.238-.083-.256-.164-.007-.031.28-.103.395-.14m9.016 5.553c-.004-.054.077-.033.199.005.12.035.266.072.366.234.099.163.85 1.446.85 1.446l-.005-1.158c0-.153-.136-.158-.136-.221 0-.06.103 0 .212.037s.267.054.267.104c0 .05-.14-.023-.14.112v2.183s0 .095-.063.008a240.61 240.61 0 01-1.176-1.88s.005 1.135 0 1.254c-.003.133.146.12.146.188 0 .07-.159.033-.258.015-.1-.02-.249-.004-.249-.092 0-.085.136.046.136-.157V41.26c0-.14-.145-.15-.149-.221m1.061-3.343c0-.082.358.063.638.144.28.081.808.167.808.338 0 .211.054.413-.013.413-.042 0-.127-.267-.213-.355-.13-.13-.397-.188-.47-.201-.073-.015-.054-.01-.054.04v.679s.18.088.28.044c.1-.044.113-.203.172-.19.058.013.037.135.027.37-.01.235.019.449-.041.425-.058-.022-.063-.221-.184-.34-.123-.117-.258-.134-.258-.134v1.107s.135.148.415.059c.28-.091.479-.28.524-.236.045.046.023.108-.112.32-.136.214-.208.35-.344.29-.136-.06-.443-.176-.632-.261-.19-.087-.582-.182-.582-.263 0-.08.193.068.193-.167v-1.893c0-.095-.154-.125-.154-.189m-.457-.324c.1 0 .08.367.095.487.027.23.096.43.024.434-.109.005-.238-.359-.412-.538-.164-.17-.767-.478-.767.797 0 1.09.473 1.067.732.987.254-.081.359-.28.388-.26.03.019-.21.538-.738.598-.528.059-1.044-.458-1.044-1.27 0-.813.398-1.31.9-1.31.405 0 .524.278.697.278.116 0 .01-.203.125-.203m1.361-2.892c.02-.103.203.026.502.147.297.124.514.187.497.237-.018.049-.23-.032-.204.108.026.14.361 1.237.361 1.237s.388-.92.398-.957c.028-.113-.104-.131-.091-.186.015-.057.132.02.227.073.094.053.247.103.22.168-.026.062-.14-.082-.184.026a739.87 739.87 0 01-.823 1.851l-.777-2.506c-.044-.145-.139-.132-.126-.198m-1.776-.673c0-.06.11-.01.11-.01l.69.248s.122.042.118.097c-.004.053-.235-.07-.235.139v1.947s.05.13.28.036c.231-.095.573-.322.573-.322s.163-.08.123.033c-.041.113-.204.474-.204.474s-.036.14-.221.108c-.186-.033-.642-.172-.768-.209-.127-.034-.48-.143-.48-.143s-.071-.014-.071-.069c0-.053.221.006.221-.171v-1.901c0-.172-.136-.176-.136-.257m2.678 6.877c0-.133.185.051.185-.162v-1.88c0-.235-.106-.226-.106-.32 0-.092.206.044.255.066.05.02.59.298.648.327.056.027.634.264.634.895 0 .435-.363.365-.363.365s.363.212.382.532c.023.32.066.591.066.635 0 .041.064.227.263.057 0 0 .022.381-.412.24-.284-.092-.364-.355-.384-.533-.023-.178-.122-1.037-.507-1.024v.861c0 .23.135.164.135.3 0 .086-.199-.051-.377-.123-.263-.117-.42-.156-.42-.236m.664-1.912v.875c.057.02.49.298.49-.242s-.49-.633-.49-.633m-.954 3.277c.042-.136-.087-.175-.062-.232.02-.043.196.054.303.103.107.05.27.093.314.238.042.145.6 2.051.654 2.228.06.2.177.144.143.235-.015.036-.179-.043-.503-.17-.27-.108-.402-.142-.402-.184 0-.089.272.057.208-.128a13.758 13.758 0 01-.136-.452l-.75-.243-.108.363c-.053.181.118.15.085.219-.016.038-.123-.01-.262-.068-.134-.053-.19-.064-.186-.103.008-.064.114.029.163-.101.05-.133.501-1.589.54-1.705m.118.249l-.262.844.584.195zm15.04-23.568v24.977c.277 14.92-11.928 20.213-19.98 20.213C12.335 63.92.13 58.626.408 43.707V18.73h7.448c-.04-.46.085-.783.097-.797 10.175-2.038 15.096-2.134 25.263.006.218.264.26.546.222.791zM4.13 54.934l7.8-8.307v-2.426l-.884-.03s-.607-.169-.457-.77c.136-.544.713-.421.713-.421s-.136-.5.374-.728a.617.617 0 01.255-.062v-1.61L2.187 50.96a17.002 17.002 0 001.945 3.975m9.708-21.226c.106-.049.213-.098.32-.151.375-.19 1.052-.544 1.782-.852.717-.303 1.565-.599 2.245-.599a3.412 3.412 0 012.05.69l.038.032a1.458 1.458 0 01.407-.375c.333-.211.842-.375 1.613-.375.808 0 1.714.323 2.446.653l.168.078L37.44 19.463h-5.678L20.725 31.217v-5.658l5.723-6.096H1.138v24.251a24.35 24.35 0 00.09 2.61l5.46-5.817h5.245v-4.634c-.098.135-.247.11-.247.11s.132-.4-.232-.458a.609.609 0 00-.09-.006c-.207 0-.323.104-.447.203-.194.155-.768.827-.88.936-.111-.11-.685-.78-.88-.936-.123-.1-.24-.203-.446-.203a.602.602 0 00-.09.006c-.366.059-.232.459-.232.459s-.331.055-.331-.448c0-.356.283-.565.533-.632.379-.086.753-.113.824-.74.004-.124-.017-.15-.017-.15s-.136.207-.472.367c-.39.203-1.442.189-1.415.791-.008.242.257.22.257.22s-.014.109-.191.135a.566.566 0 01-.142.005c-.243-.035-.325-.293-.307-.618.014-.204-.122-.473-.386-.434a.494.494 0 00-.15.052c-.2.117-.13.309-.13.309s-.228-.128-.193-.394c.03-.228.181-.332.395-.42.026-.006.052-.01.077-.014.273-.042.502.04.502.04s-.069-.209-.044-.416c.023-.178.116-.356.383-.406.397-.074.483.193.423.339-.022.014-.092-.091-.206-.075a.226.226 0 00-.052.016.262.262 0 00-.125.126c-.067.158.064.357.087.39.08.106.325.18.63.124a1.15 1.15 0 00.73-.514.455.455 0 00.084-.272l.193-2.147s.062-.552-.315-.616a.392.392 0 00-.133-.003c-.317.052-.648.473-.544 1.003.08.406-.128.718-.328.763-.255.06-.41.01-.499-.177.444-.029.416-.385.276-.513-.06-.053-.146-.068-.246-.053-.415.065-1.071.636-1.176.977-.095.307.135.229.232.487.079.208-.097.373-.097.373-.006.07-.015.13-.027.178-.048.181-.142.24-.229.253a.374.374 0 01-.165-.018c.11-.049.145-.151.153-.235.007-.058.002-.105.002-.105s-.124.013-.232-.154c-.125-.195.03-.256-.108-.466-.14-.21-.527-.433-.83-.472a.205.205 0 00-.057 0c-.058.008-.114.04-.205.053a.439.439 0 01-.088.008c-.238.005-.173-.141-.37-.124-.101.02-.16.117-.126.256a.033.033 0 01-.01.034.358.358 0 01-.162-.29c-.002-.31.196-.529.383-.546a.358.358 0 01.34.142c.123-.514-.28-.34-.475-.587-.13-.17-.079-.256-.062-.318.028-.092-.134-.104-.256-.084a.536.536 0 00-.09.02c-.024-.022.039-.262.292-.299a.65.65 0 01.337.048.26.26 0 01.303.115c.056.107.01.229.024.36.04.342.25.332.282.329-.186-.489.048-.633.071-.71.024-.077-.005-.18-.126-.222-.026-.01-.06-.03-.02-.041 0 0 .467-.02.54.285 0 0 .201.107.206.36.005.315-.165.343-.23.406.048.329.242.384.425.357.179-.029.345-.135.345-.135.307-.122.946-.516.773-.84-.078-.147-.207-.21-.35-.188a.491.491 0 00-.206.088c-.185.177-.093.409-.093.409-.281.075-.413-.414-.237-.62a.686.686 0 01.434-.233c.185-.032.383-.025.573-.064.225-.044.397-.184.563-.476a.77.77 0 00.02-.71c-.109-.244-.334-.552-.65-.609a1.71 1.71 0 01-.71 1.202.736.736 0 01-.28.108c-.064.009-.103.005-.089-.015.466-.542.346-1.114.333-1.169-.034.063-.398.73-1.047 1.017a.937.937 0 01-.195.055c-.35.055-.698-.108-.56-.127.23-.03 1.161-.571.88-1.718-.035.066-.444.797-.948 1.142a1.51 1.51 0 01-.638.25c-.397.065-.698-.046-.642-.098 0 0 1.096-.52 1.11-1.014-.036.028-.333.258-.678.31a.846.846 0 01-.141.011c-.935 0-.935-.672-.935-.672.065.007.939.064 1.652-1.45 0 0-.465.164-1.001.223-.318.036-.451-.164-.413-.162a.412.412 0 00.198.012c.176-.027.427-.138.745-.383-.085-.038-1.23-.545-.788-1.332 0 0 .316.276.706.311.286.025.785-.029.906-.316 0 0-.617-.035-1.223-.417-.357-.223-.497-.752-.366-.599.134.158.271.204.476.257.16.04.27.002.27.002s-.89-.842-.327-1.496c0 0 .3.839 1.037.841 0 0-.374-.346-.448-.762-.052-.286-.03-.665.021-.557.036.076.116.21.169.307.091.166.287.388.445.523 0 0-.112-.44.041-.838.022-.06.228-.395.243-.312 0 0 .002.263.017.348.046.282.153.636.687 1.18.675.688 1.409.683 1.414 1.114-.026.513-.658.446-1.073.41-.144 0-.125.22-.005.378.345.462 1.81.574 2.268-.176a.985.985 0 00.097-.87c-.139-.39-.453-.4-1.05-.53-.425-.092-.31-.282-.247-.282 0 0 .13.073.254.073.314.002.123-.401.09-.396-.08.011-.419.148-.711.173-.37.033-.814-.116-.814-.374 0-.309.388-.395.37-.314-.004.02-.233.44.45.416.217-.007.653-.031.652-.051-.014-.115-.216-.279-.372-.279-.114 0-.22.03-.428.008-.075-.183.124-.37.262-.439.137-.069.236-.036.296-.058.08-.027.128-.28.585-.287.24-.003.588.163.75.163.16 0 .445-.104.474-.053.028.053-.114.217-.087.362-.013.334.566 1.657 1.176 1.782.61-.125 1.191-1.448 1.177-1.782.028-.145-.115-.309-.087-.362.03-.05.316.053.476.053.16 0 .508-.166.75-.163.456.007.505.26.585.287.06.022.157-.01.294.058.138.07.337.256.263.439-.208.022-.315-.008-.43-.008-.154 0-.357.164-.369.279-.002.02.434.044.65.05.685.024.456-.395.45-.415-.017-.081.372.005.372.314 0 .258-.445.407-.815.374-.292-.025-.63-.162-.71-.173-.033-.005-.225.398.09.396.125 0 .254-.073.254-.073.063 0 .178.19-.246.281-.598.13-.914.142-1.052.531a.993.993 0 00.096.87c.46.75 1.925.638 2.27.176.118-.158.139-.378-.007-.378-.413.036-1.045.103-1.073-.41.007-.431.74-.426 1.416-1.115.532-.543.641-.897.687-1.18.013-.084.017-.347.017-.347.013-.083.22.251.242.312.153.399.041.838.041.838.157-.135.354-.357.445-.523.053-.097.133-.231.168-.307.052-.108.073.271.023.557-.075.416-.448.762-.448.762.737-.002 1.036-.84 1.036-.84.563.653-.327 1.495-.327 1.495s.11.038.27-.002c.206-.053.342-.1.475-.257.132-.153-.008.376-.365.6a2.85 2.85 0 01-1.222.416c.12.287.62.341.904.316.39-.035.708-.31.708-.31.44.786-.705 1.293-.789 1.331.318.245.57.356.744.383.08.013.144.006.2-.012.038-.002-.095.198-.415.162-.534-.06-1-.223-1-.223.714 1.514 1.586 1.457 1.653 1.45 0 0 0 .672-.935.672a.969.969 0 01-.142-.01c-.344-.053-.642-.283-.678-.311.015.495 1.11 1.014 1.11 1.014.057.052-.246.163-.643.099a1.5 1.5 0 01-.636-.251c-.506-.345-.915-1.076-.951-1.142-.28 1.147.651 1.687.881 1.718.139.019-.21.182-.56.127a.942.942 0 01-.193-.055c-.65-.286-1.013-.954-1.047-1.017-.013.055-.135.627.331 1.17.016.02-.024.023-.087.014a.724.724 0 01-.28-.108 1.715 1.715 0 01-.712-1.202c-.315.057-.54.365-.649.61a.775.775 0 00.02.709c.167.292.339.432.564.476.188.04.387.032.57.064a.686.686 0 01.436.232c.177.207.044.696-.238.621 0 0 .094-.232-.092-.409a.493.493 0 00-.207-.088c-.14-.021-.272.041-.35.189-.172.323.468.717.774.84 0 0 .166.105.345.134.182.027.378-.028.425-.357-.066-.063-.236-.091-.231-.406.006-.253.208-.36.208-.36.072-.306.538-.285.538-.285.042.01.006.031-.019.04-.12.043-.15.146-.125.223.022.077.256.221.071.71.031.003.242.013.28-.328.015-.132-.03-.254.026-.361.046-.09.17-.154.303-.115a.646.646 0 01.337-.048.39.39 0 01.314.277s.004.029-.024.023a.531.531 0 00-.088-.021c-.122-.02-.284-.008-.257.084.017.062.07.148-.063.318-.193.247-.596.073-.474.587.016-.026.119-.163.341-.142.186.017.383.236.38.546a.352.352 0 01-.158.29s-.018-.013-.013-.034c.033-.139-.024-.235-.126-.256-.195-.017-.131.129-.37.124a.461.461 0 01-.088-.008c-.09-.013-.146-.045-.205-.052a.196.196 0 00-.056-.001c-.302.039-.69.263-.83.472-.138.21.018.27-.109.466-.108.167-.232.154-.232.154s-.005.047.002.105a.35.35 0 00.014.07m-.8.301c.19-.055.398-.13.612-.22a.492.492 0 01-.065-.15.868.868 0 01-.027-.18s-.176-.164-.096-.372c.096-.258.326-.18.23-.487-.106-.34-.761-.912-1.176-.977-.1-.015-.186 0-.246.053-.14.128-.167.484.276.513-.09.187-.244.237-.498.177-.202-.045-.41-.357-.33-.763.106-.53-.225-.951-.544-1.003a.38.38 0 00-.131.003c-.377.064-.315.616-.315.616l.193 2.147c-.01.067.019.167.083.272.124.206.375.436.73.514.306.057.55-.018.63-.124.023-.033.154-.232.088-.39a.272.272 0 00-.125-.126.23.23 0 00-.054-.016c-.112-.016-.184.089-.206.075-.058-.146.027-.413.424-.339.267.05.36.228.382.406.027.207-.044.416-.044.416s.084-.03.21-.045m-1.107.766a.648.648 0 01.002-.17c-.29-.084-.609-.13-.788-.223-.334-.16-.472-.367-.472-.367s-.02.026-.016.15c.07.627.446.654.823.74a.756.756 0 01.45.325zm13.525 12.077c-.06.122-.056.353.03.466.313.417 1.546.548 2.116.01-.738-.114-1.433-.306-2.146-.476m3.433-1.154c.184.248.396.443.612.486.611-.124 1.19-1.448 1.176-1.782.028-.143-.113-.308-.085-.361.029-.05.315.053.474.053.16 0 .51-.166.75-.163.457.007.505.258.586.287.06.02.158-.01.294.058.138.068.338.256.265.439-.21.02-.316-.008-.43-.008-.155 0-.358.164-.371.279-.001.018.434.044.65.051.685.022.456-.396.45-.417-.016-.08.372.006.372.315 0 .258-.445.405-.815.374-.292-.026-.63-.162-.71-.175-.034-.005-.224.4.089.398.125 0 .255-.075.255-.075.063 0 .177.192-.247.281-.597.132-.912.144-1.052.533a.994.994 0 00.098.87c.458.749 1.923.637 2.269.177.119-.159.138-.379-.007-.379-.413.037-1.045.103-1.073-.411.006-.43.74-.425 1.416-1.115.533-.542.64-.897.687-1.18.013-.083.016-.346.016-.346.015-.084.22.25.243.312.152.399.04.838.04.838.158-.135.355-.358.447-.523.052-.098.132-.232.166-.305.052-.11.075.27.023.555-.074.415-.448.762-.448.762.738-.004 1.037-.842 1.037-.842.562.653-.327 1.496-.327 1.496s.11.04.27-.001c.206-.053.343-.1.476-.257.13-.153-.009.375-.367.598-.604.382-1.222.418-1.222.418.12.286.62.341.905.316.39-.035.707-.31.707-.31.443.784-.704 1.292-.788 1.331.317.244.57.354.746.383a.421.421 0 00.198-.012c.037-.002-.096.197-.414.162-.535-.06-1-.223-1-.223.713 1.514 1.584 1.457 1.652 1.45 0 0 0 .672-.935.672a.964.964 0 01-.141-.01c-.346-.053-.643-.284-.68-.311.016.495 1.11 1.013 1.11 1.013.057.052-.245.162-.641.1a1.526 1.526 0 01-.638-.253c-.504-.344-.913-1.075-.949-1.14-.28 1.147.65 1.686.881 1.718.139.018-.21.18-.56.125a.708.708 0 01-.194-.054c-.651-.285-1.014-.953-1.047-1.016-.014.055-.133.625.332 1.17.014.018-.025.022-.088.012a.716.716 0 01-.281-.107 1.716 1.716 0 01-.711-1.2c-.316.056-.54.362-.649.607a.775.775 0 00.02.71c.166.293.338.432.564.479.187.037.387.03.57.062a.69.69 0 01.436.23c.176.209.044.698-.238.622 0 0 .093-.232-.092-.408a.496.496 0 00-.205-.09c-.143-.02-.273.042-.353.19-.172.324.468.718.775.84 0 0 .167.106.345.133.183.029.378-.026.426-.355-.067-.063-.238-.093-.231-.406.004-.253.207-.361.207-.361.071-.305.54-.285.54-.285.04.01.005.032-.022.041-.12.042-.149.145-.125.223.024.075.257.221.072.708.032.005.241.015.28-.326.016-.133-.03-.256.025-.362a.26.26 0 01.303-.115.665.665 0 01.337-.048c.254.038.317.277.317.277s.002.032-.024.025a.353.353 0 00-.09-.024c-.123-.018-.284-.008-.257.086.017.062.069.146-.063.317-.194.248-.596.074-.475.588a.357.357 0 01.341-.143c.187.018.385.237.382.547a.354.354 0 01-.16.29s-.016-.014-.012-.032c.035-.142-.024-.237-.127-.26-.195-.015-.129.13-.37.124a.571.571 0 01-.087-.006c-.09-.014-.145-.045-.205-.053a.202.202 0 00-.056-.002c-.303.04-.69.263-.83.474-.138.21.017.27-.109.465-.107.167-.232.155-.232.155s-.006.047.001.106c.011.081.044.185.151.209 0 0 .033.016.004.023a.353.353 0 01-.167.019c-.085-.013-.18-.072-.226-.251a.892.892 0 01-.027-.18s-.175-.164-.097-.373c.097-.259.326-.18.232-.487-.106-.34-.763-.911-1.178-.976-.1-.016-.185 0-.245.055-.14.126-.168.481.276.511-.09.185-.244.236-.498.177-.2-.047-.41-.357-.33-.763.105-.53-.225-.953-.543-1.004a.37.37 0 00-.133.003c-.376.064-.315.616-.315.616l.194 2.147c-.01.066.019.167.082.274.124.205.376.435.731.511.305.057.55-.016.63-.122.022-.034.154-.232.087-.39a.262.262 0 00-.125-.126.247.247 0 00-.052-.017c-.113-.015-.184.089-.207.076-.058-.148.027-.414.424-.338.267.05.36.227.383.406.025.206-.045.414-.045.414s.23-.081.504-.04c.025.004.05.01.077.016.213.087.364.19.395.42.034.263-.193.393-.193.393s.07-.192-.132-.31a.514.514 0 00-.15-.051c-.264-.04-.4.229-.384.434.018.325-.063.581-.308.617a.71.71 0 01-.141-.004c-.178-.028-.191-.136-.191-.136s.263.024.256-.219c.027-.602-1.027-.59-1.416-.792-.335-.16-.47-.366-.47-.366s-.022.025-.018.15c.07.627.445.653.822.74.25.067.535.276.535.63 0 .503-.33.448-.33.448s.131-.4-.233-.456a.58.58 0 00-.09-.007c-.205 0-.323.104-.447.202-.193.155-.766.826-.878.936-.112-.11-.687-.781-.88-.936-.124-.098-.242-.202-.447-.202a.611.611 0 00-.091.007c-.364.057-.231.456-.231.456s-.33.055-.33-.448c0-.354.282-.563.533-.63.378-.087.752-.113.823-.74.004-.125-.017-.15-.017-.15s-.136.205-.471.366c-.39.203-1.443.19-1.416.792-.008.243.256.22.256.22s-.013.107-.19.135a.717.717 0 01-.142.004c-.244-.036-.325-.292-.308-.617.015-.205-.12-.474-.384-.434a.513.513 0 00-.15.052c-.202.117-.131.309-.131.309s-.228-.13-.194-.394c.031-.229.182-.332.395-.419a1.156 1.156 0 01.581.023s-.07-.207-.045-.413c.023-.18.116-.356.384-.406.396-.076.481.19.423.338-.023.013-.093-.091-.207-.076a.232.232 0 00-.052.017.26.26 0 00-.125.127c-.067.157.065.355.086.389.08.106.326.18.631.122.355-.076.607-.306.73-.511.065-.107.094-.208.083-.274l.194-2.147s.061-.552-.315-.616a.364.364 0 00-.132-.003c-.319.051-.65.474-.544 1.004.08.406-.128.716-.33.763-.254.059-.409.008-.498-.177.444-.03.416-.385.276-.511-.06-.055-.145-.07-.245-.055-.415.065-1.072.635-1.178.976-.094.308.135.228.233.487.078.209-.098.374-.098.374a.847.847 0 01-.027.179c-.046.18-.141.238-.226.25a.355.355 0 01-.167-.018c.11-.047.144-.15.155-.232.006-.06.001-.106.001-.106s-.126.012-.232-.155c-.127-.194.03-.254-.109-.465-.14-.21-.526-.435-.83-.474a.195.195 0 00-.055.002c-.06.008-.117.039-.206.053a.578.578 0 01-.088.006c-.24.007-.175-.14-.37-.123-.102.022-.16.117-.126.259.004.018-.012.031-.012.031a.35.35 0 01-.16-.289c-.003-.31.195-.529.381-.547.223-.02.326.117.342.143.121-.514-.282-.34-.475-.588-.132-.17-.08-.255-.062-.317.026-.094-.135-.104-.258-.086a.33.33 0 00-.088.024c-.026-.025.038-.264.29-.302a.663.663 0 01.338.048.26.26 0 01.303.115c.056.106.009.229.025.362.039.34.249.331.28.326-.186-.487.048-.633.072-.708.024-.078-.006-.18-.125-.223-.027-.009-.061-.03-.022-.041 0 0 .468-.02.54.285 0 0 .203.108.207.36.006.314-.164.344-.23.407.047.33.242.384.425.355.178-.027.345-.133.345-.133.307-.122.947-.516.774-.84-.08-.148-.209-.21-.35-.19a.492.492 0 00-.207.09c-.184.176-.092.408-.092.408-.282.076-.414-.413-.239-.621a.696.696 0 01.437-.23c.184-.033.382-.026.57-.063.226-.047.398-.186.564-.48a.778.778 0 00.02-.71c-.109-.244-.332-.55-.65-.607-.06.529-.352.946-.71 1.2a.72.72 0 01-.28.108c-.064.01-.103.006-.09-.011.467-.546.346-1.116.333-1.17-.033.062-.396.73-1.046 1.015a.719.719 0 01-.195.054c-.349.055-.698-.107-.56-.125.232-.032 1.16-.57.881-1.718-.036.065-.444.796-.95 1.14a1.527 1.527 0 01-.637.253c-.396.062-.698-.048-.641-.1 0 0 1.094-.518 1.11-1.013-.037.027-.334.258-.68.31a.975.975 0 01-.14.011c-.935 0-.935-.672-.935-.672.066.007.939.064 1.652-1.45 0 0-.466.164-1 .223-.319.035-.452-.164-.415-.162.056.019.12.024.199.012.176-.029.428-.14.745-.383-.084-.04-1.23-.547-.788-1.332 0 0 .317.276.706.311.286.025.786-.03.906-.316 0 0-.617-.036-1.223-.418a.78.78 0 01-.054-.037 8.16 8.16 0 00-.858.043c-.196.767-.832 1.33-1.585 1.33-.75 0-1.384-.558-1.583-1.318a5.47 5.47 0 00-1.42-.061L6.654 57.906a18.37 18.37 0 003.352 2.476l10.036-10.686v5.656l-6.302 6.713c2.291.774 4.602 1.125 6.649 1.125 7.827 0 19.516-5.128 19.249-19.476v-9.23l-5.015 5.342H29.31l10.328-11v-6.047L28.81 34.312c.05.04.079.087.079.138zm-1.168 3.46h3.563v-1.432h-3.564zm1.782 2.794c1.601 0 1.741-1.513 1.741-1.513h-3.494s.15 1.513 1.753 1.513M8.257 27.02h3.562v-1.431H8.255zm1.78 2.796c1.603 0 1.742-1.515 1.742-1.515H8.284s.151 1.515 1.754 1.515m9.61 16.47a.768.768 0 101.536-.002.768.768 0 00-1.536.001M12.42 34.74v11.752s.129.157.914-.058c.904-.247 2.025-1.398 3.596-1.742 1.179-.255 2.768.116 3.138.373V33.292s-.711-.698-1.882-.698c-1.142 0-3.07 1.026-3.81 1.399-.646.322-1.324.565-1.82.613-.148.013-.136.134-.136.134m10.302 9.925c2.041 0 3.104 1.265 3.796 1.541 1.612.64 1.883.313 1.883.313V34.706c0-.114-.171-.114-.171-.114s-1.572-.243-2.112-.572c-.513-.312-2.425-1.455-3.824-1.455-1.403 0-1.654.6-1.654.6v11.928s.656-.428 2.082-.428" fill="#ed1639"/></svg>